# xmcd
#
# Track frame offsets:
#	150
#	16677
#	27315
#	40797
#	58680
#	74132
#	87995
#	107385
#	125702
#	141615
#	156422
#	173270
#	185922
#	206812
#	225170
#	241947
#	257887
#
# Disc length: 3576 seconds
#
# Revision: 1
# Processed by: cddbd v1.5.1PL0 Copyright (c) Steve Scherf et al.
# Submitted via: CDex 1.50Beta5
#
DISCID=ef0df611
DTITLE=Various Artist - FUN UNIVERSAL 2000 SUPER HITS
DYEAR=1900
DGENRE=
TTITLE0=シャナイア・トゥエイン/ドント・インプレス・ミー
TTITLE1=ジェーン・バーキン/無造作紳士
TTITLE2=ジェーン・バーキン/哀しみの影
TTITLE3=メアリーJ.ブライジ/オール・ザット・アイ・キャン・セイ
TTITLE4=エンリケ・イグレシアス/バイラモス
TTITLE5=U2/スウィーテスト・シング
TTITLE6=シェリル・クロウ/エニシング・バット・ダウン
TTITLE7=ドゥルー・ヒル/ハウ・ディーブ・イズ・ユア・ラヴ
TTITLE8=クランベリーズ/プロミセズ
TTITLE9=スマッシュ・マウス/オール・スター
TTITLE10=A*Teens/ママ・ミア
TTITLE11=702/ホエア・マイ・ガール・アット
TTITLE12=K-ci&Jojo/テル・ミー・イッツ・リアル
TTITLE13=TEXAS/イン・アワ・ライフタイム
TTITLE14=バハ・メン/ウガ・チャカ・パラダイス
TTITLE15=ポール・ギルバート/ダウン・トゥ・メキシコ
TTITLE16=ヒップスター・イメージ/メイク・ハー・マイン
EXTD=
EXTT0=
EXTT1=
EXTT2=
EXTT3=
EXTT4=
EXTT5=
EXTT6=
EXTT7=
EXTT8=
EXTT9=
EXTT10=
EXTT11=
EXTT12=
EXTT13=
EXTT14=
EXTT15=
EXTT16=
PLAYORDER=
